<?xml version="1.0" encoding="UTF-8" standalone="no"?>
<!DOCTYPE svg PUBLIC "-//W3C//DTD SVG 1.1//EN" "http://www.w3.org/Graphics/SVG/1.1/DTD/svg11.dtd">
<svg width="100%" height="100%" viewBox="0 0 672 71" version="1.1" xmlns="http://www.w3.org/2000/svg" xmlns:xlink="http://www.w3.org/1999/xlink" xml:space="preserve" xmlns:serif="http://www.serif.com/" style="fill-rule:evenodd;clip-rule:evenodd;stroke-linejoin:round;stroke-miterlimit:2;">
    <g transform="matrix(1,0,0,1,-9066.392149,-210.466459)">
        <g transform="matrix(1,0,0,1,0,3102.220472)">
            <g transform="matrix(0.378344,0,0,0.345073,5590.820279,-3217.58956)">
                <path d="M9331.346,945.851L9274.813,945.851L9186.279,1061.318L9186.279,1103.184L9295.079,1103.184L9295.079,1145.851L9331.346,1145.851L9331.346,1103.184L9354.813,1103.184L9354.813,1074.118L9331.346,1074.118L9331.346,945.851ZM9295.079,1074.118L9216.679,1074.118L9294.013,973.584L9295.079,973.584L9295.079,1074.118Z" style="fill:rgb(164,53,53);fill-rule:nonzero;"/>
                <path d="M9463.879,978.651L9522.546,978.651L9522.546,945.851L9366.813,945.851L9366.813,978.651L9425.479,978.651L9425.479,1145.851L9463.879,1145.851L9463.879,978.651Z" style="fill:rgb(164,53,53);fill-rule:nonzero;"/>
                <path d="M9636.413,1079.718C9654.813,1079.984 9661.746,1091.718 9661.746,1108.518L9661.746,1145.851L9700.146,1145.851L9700.146,1108.518C9700.146,1080.251 9693.479,1065.584 9666.279,1063.184L9666.279,1062.118C9700.146,1057.051 9701.746,1035.451 9701.746,1005.851C9701.746,960.518 9684.946,946.918 9641.213,945.851L9539.079,945.851L9539.079,1145.851L9577.479,1145.851L9577.479,1079.718L9636.413,1079.718ZM9577.479,1046.918L9577.479,978.651L9630.813,978.651C9658.279,978.651 9663.346,983.718 9663.346,1011.984C9663.346,1041.318 9656.413,1046.918 9628.146,1046.918L9577.479,1046.918Z" style="fill:rgb(164,53,53);fill-rule:nonzero;"/>
                <path d="M9853.213,1107.984L9866.279,1145.851L9905.213,1145.851L9837.479,945.851L9780.946,945.851L9714.546,1145.851L9754.279,1145.851L9766.813,1107.984L9853.213,1107.984ZM9844.679,1078.918L9775.613,1078.918L9809.746,975.184L9810.279,975.184L9844.679,1078.918Z" style="fill:rgb(164,53,53);fill-rule:nonzero;"/>
                <path d="M10079.079,1012.784L10079.079,1001.851C10076.413,944.518 10047.879,944.251 9998.013,944.251C9939.079,944.251 9914.279,958.651 9914.279,1022.651L9914.279,1068.518C9915.079,1126.918 9927.613,1150.118 9998.013,1147.451C10047.613,1145.318 10082.013,1147.451 10081.213,1087.184L10081.213,1074.118L10042.813,1074.118L10042.813,1085.051C10042.813,1113.584 10028.946,1114.651 9998.013,1114.651C9957.746,1114.651 9952.946,1106.918 9952.679,1066.918L9952.679,1022.651C9952.679,983.451 9959.346,977.051 9998.013,977.051C10031.613,977.051 10040.679,978.651 10040.679,1001.851L10040.679,1012.784L10079.079,1012.784Z" style="fill:rgb(164,53,53);fill-rule:nonzero;"/>
                <path d="M10146.013,945.851L10107.613,945.851L10107.613,1145.851L10146.013,1145.851L10146.013,1060.251L10163.879,1060.251L10237.479,1145.851L10286.013,1145.851L10196.679,1043.451L10277.746,945.851L10230.546,945.851L10163.879,1027.451L10146.013,1027.451L10146.013,945.851Z" style="fill:rgb(164,53,53);fill-rule:nonzero;"/>
                <path d="M10289.479,1082.118L10289.479,1091.451C10289.479,1148.784 10328.946,1147.451 10373.213,1147.451C10424.679,1147.451 10451.346,1142.651 10451.346,1086.384C10451.346,1035.451 10434.546,1032.251 10372.946,1028.518C10334.013,1026.118 10328.946,1025.318 10328.946,1000.784C10328.946,979.451 10335.079,975.718 10373.213,975.718C10400.146,975.718 10408.946,976.518 10408.946,998.118L10408.946,1004.518L10447.346,1004.518L10447.346,998.118C10447.346,945.584 10414.013,944.251 10373.213,944.251C10325.213,944.251 10290.546,945.851 10290.546,1000.784C10290.546,1058.918 10324.679,1057.318 10367.879,1059.984C10397.746,1061.584 10412.946,1057.851 10412.946,1086.384C10412.946,1109.584 10408.146,1115.984 10373.213,1115.984C10337.746,1115.984 10327.879,1114.384 10327.879,1091.451L10327.879,1082.118L10289.479,1082.118Z" style="fill:rgb(164,53,53);fill-rule:nonzero;"/>
                <rect x="10483.879" y="1109.318" width="33.6" height="36.533" style="fill:rgb(164,53,53);fill-rule:nonzero;"/>
                <path d="M10607.879,978.651L10701.746,978.651L10701.746,945.851L10569.479,945.851L10569.479,1145.851L10607.879,1145.851L10607.879,1063.184L10696.946,1063.184L10696.946,1031.718L10607.879,1031.718L10607.879,978.651Z" style="fill:rgb(164,53,53);fill-rule:nonzero;"/>
                <path d="M10923.613,977.318L10924.946,977.318L10921.746,1145.851L10960.146,1145.851L10960.146,945.851L10897.213,945.851L10843.879,1094.384L10842.813,1094.384L10788.413,945.851L10726.813,945.851L10726.813,1145.851L10765.213,1145.851L10762.013,978.118L10762.813,978.118L10826.279,1145.851L10860.679,1145.851L10923.613,977.318Z" style="fill:rgb(164,53,53);fill-rule:nonzero;"/>
            </g>
        </g>
    </g>
</svg>
